# xmcd CD database file
#
# Track frame offsets:
#	150
#	20362
#	36704
#	43482
#	68197
#	91192
#	117185
#	143290
#	170755
#	194570
#	215243
#	234075
#	243267
#	266972
#	297157
#
# Disc length: 4207 seconds
#
# Revision: 7
# Processed by: cddbd v1.5.2PL0 Copyright (c) Steve Scherf et al.
# Submitted via: CDex 1.70beta2
#
DISCID=e5106d0f
DTITLE=BOOM BOOM SATELLITES - 19972007. [Disc.2]
DYEAR=2010
DGENRE=J-Pop
TTITLE0=EASY ACTION
TTITLE1=SHUT UP AND EXPLODE
TTITLE2=id
TTITLE3=Push Eject
TTITLE4=JOYRIDE
TTITLE5=YOUR REALITYS' A FANTASY BUT YOUR FANTASY IS KILLING ME (Featuring CHUCK D)
TTITLE6=BRANDNEW BATTERING RAM
TTITLE7=DRESS LIKE AN ANGEL
TTITLE8=Scatterin' Monkey
TTITLE9=Rise and Fall
TTITLE10=Dive For You
TTITLE11=Propeller
TTITLE12=Anthem -reprise-
TTITLE13=INGRAINED
TTITLE14=Echo Tail
EXTD=YEAR: 2010
EXTT0=
EXTT1=
EXTT2=
EXTT3=
EXTT4=
EXTT5=
EXTT6=
EXTT7=
EXTT8=
EXTT9=
EXTT10=
EXTT11=
EXTT12=
EXTT13=
EXTT14=
PLAYORDER=
